<svg height="496pt" viewBox="-72 0 496 496" width="496pt" xmlns="http://www.w3.org/2000/svg"><path d="m48 256h32v112h-32zm0 0" fill="#bdccd4"/><path d="m80 256h64v112h-64zm0 0" fill="#edf1f2"/><path d="m144 256h64v112h-64zm0 0" fill="#bdccd4"/><path d="m272 256h32v112h-32zm0 0" fill="#bdccd4"/><path d="m208 256h64v112h-64zm0 0" fill="#edf1f2"/><path d="m208 160h64v64h-64zm0 0" fill="#edf1f2"/><path d="m272 160h64v64h-64zm0 0" fill="#bdccd4"/><path d="m144 160h64v64h-64zm0 0" fill="#bdccd4"/><path d="m80 160h64v64h-64zm0 0" fill="#edf1f2"/><path d="m80 160v64h-64v-128h64zm0 0" fill="#bdccd4"/><path d="m312 64 16 64h-48l16-64zm0 0" fill="#ff7675"/><path d="m336 136v24h-64v-24l8-8h48zm0 0" fill="#fab1a0"/><path d="m248 64 16 64h-48l16-64zm0 0" fill="#00cec9"/><path d="m272 136v24h-64v-24l8-8h48zm0 0" fill="#81ecec"/><path d="m184 64 16 64h-48l16-64zm0 0" fill="#a29bfe"/><path d="m208 136v24h-64v-24l8-8h48zm0 0" fill="#9694ea"/><path d="m120 64 16 64h-48l16-64zm0 0" fill="#74b9ff"/><path d="m144 136v24h-64v-24l8-8h48zm0 0" fill="#8fccff"/><path d="m56 0 16 64h-48l16-64zm0 0" fill="#fdcb6e"/><path d="m80 72v24h-64v-24l8-8h48zm0 0" fill="#ffeaa7"/><path d="m0 464h352v32h-352zm0 0" fill="#bdccd4"/><path d="m352 224v240h-352v-240zm-48 144v-112h-256v112zm0 0" fill="#ff7675"/><path d="m16 88h64v16h-64zm0 0" fill="#fdcb6e"/><path d="m80 152h64v16h-64zm0 0" fill="#74b9ff"/><path d="m144 152h64v16h-64zm0 0" fill="#a29bfe"/><path d="m208 152h64v16h-64zm0 0" fill="#00cec9"/><path d="m272 152h64v16h-64zm0 0" fill="#ff7675"/></svg>