<svg xmlns="http://www.w3.org/2000/svg" width="512" height="512" viewBox="0 0 512 512"><path d="M153,114.75h1.592A28.686,28.686,0,0,0,183.28,86.062V28.688A28.686,28.686,0,0,0,154.592,0H153a28.686,28.686,0,0,0-28.688,28.688V86.062A28.686,28.686,0,0,0,153,114.75Z" transform="translate(-22.478)" fill="#c14a34"/><path d="M449.438,114.75h1.592a28.685,28.685,0,0,0,28.688-28.688V28.688A28.687,28.687,0,0,0,451.029,0h-1.592a28.686,28.686,0,0,0-28.688,28.688V86.062A28.688,28.688,0,0,0,449.438,114.75Z" transform="translate(-76.081)" fill="#c14a34"/><path d="M448,76.5H425.331v7.776c0,25.73-21.532,46.661-48,46.661H376c-26.468,0-48-20.931-48-46.661V76.5H177.332v7.776c0,25.73-21.532,46.661-48,46.661H128c-26.468,0-48-20.931-48-46.661V76.5H64c-35.344,0-64,27.857-64,62.214V449.786C0,484.143,28.656,512,64,512H448c35.344,0,64-27.857,64-62.214V138.714C512,104.357,483.344,76.5,448,76.5Zm32,373.286c0,17.163-14.344,31.107-32,31.107H64c-17.64,0-32-13.944-32-31.107V200.929H480Z" fill="#c14a34"/><circle cx="47.019" cy="47.019" r="47.019" transform="translate(85.52 224.414)" fill="#c14a34"/><circle cx="47.019" cy="47.019" r="47.019" transform="translate(208.981 224.414)" fill="#c14a34"/><circle cx="47.019" cy="47.019" r="47.019" transform="translate(332.442 224.414)" fill="#c14a34"/><circle cx="47.019" cy="47.019" r="47.019" transform="translate(85.52 331.106)" fill="#c14a34"/><circle cx="47.019" cy="47.019" r="47.019" transform="translate(208.981 331.106)" fill="#c14a34"/><circle cx="47.019" cy="47.019" r="47.019" transform="translate(332.442 331.106)" fill="#c14a34"/></svg>