<svg xmlns="http://www.w3.org/2000/svg" xmlns:xlink="http://www.w3.org/1999/xlink" width="511.808" height="567.66" viewBox="0 0 511.808 567.66"><defs><linearGradient id="a" x1="0.25" y1="0.225" x2="0.828" y2="0.747" gradientUnits="objectBoundingBox"><stop offset="0" stop-color="#28a265"/><stop offset="1" stop-color="#28895e"/></linearGradient><linearGradient id="b" x1="0.723" y1="0.769" x2="0.456" y2="0.25" gradientUnits="objectBoundingBox"><stop offset="0" stop-color="#108372" stop-opacity="0"/><stop offset="1" stop-color="#006837"/></linearGradient><linearGradient id="c" x1="0.366" y1="0.196" x2="0.833" y2="0.591" gradientUnits="objectBoundingBox"><stop offset="0" stop-color="#ebeff0"/><stop offset="1" stop-color="#e3e5e4"/></linearGradient><linearGradient id="d" x1="0.787" y1="0.557" x2="-0.385" y2="0.213" gradientUnits="objectBoundingBox"><stop offset="0" stop-color="#cbd0e4" stop-opacity="0"/><stop offset="1" stop-color="#6a7d83"/></linearGradient><linearGradient id="e" x1="0.246" y1="0.198" x2="0.769" y2="0.821" xlink:href="#c"/></defs><g transform="translate(-25.09)"><g transform="translate(25.09)"><path d="M536.9,255.9C536.9,114.573,422.326,0,280.995,0A255.372,255.372,0,0,0,25.09,255.9c0,138.87,110.617,251.9,248.545,255.8a7.558,7.558,0,0,1,7.36,7.548v34.8a13.583,13.583,0,0,0,23.188,9.6l50.576-50.576a137.031,137.031,0,0,1,37.3-26.581C477.762,445.145,536.9,357.436,536.9,255.9Z" transform="translate(-25.09)" fill="url(#a)"/></g><path d="M347.677,499.3a137.012,137.012,0,0,1,37.3-26.581c85.7-41.352,144.838-129.062,144.838-230.594,0-6.23-.235-12.4-.672-18.522l-70.374-70.374c-6.141-9.784-19.608-11.166-30.62-4.259L381.3,180.087,344.811,143.9c-4.982-6.589-12.15-8.61-20.447-10.52a443.326,443.326,0,0,0-200.671,0c-12.4,2.854-19.536,9.345-23.34,21.487-16.834,53.749-16.832,108.058,0,161.8,2.277,7.271,3.986,13.493,9.864,17.938L311.289,535.683Z" transform="translate(7.082 13.78)" fill="url(#b)"/><g transform="translate(92.419 133.159)"><path d="M293.569,215.1l112.859-70.784A22.178,22.178,0,0,1,440.389,163.1V304.671a22.178,22.178,0,0,1-33.962,18.788L293.569,252.676a22.178,22.178,0,0,1,0-37.577Z" transform="translate(-63.24 -117.23)" fill="url(#c)"/><path d="M440.388,299.917v-13.85L337.262,182.941l-43.693,27.4a22.178,22.178,0,0,0,0,37.577l112.859,70.784a22.178,22.178,0,0,0,33.961-18.79Z" transform="translate(-63.24 -112.475)" fill="url(#d)"/><path d="M351.09,155.39a35.818,35.818,0,0,0-26.107-24.254,443.326,443.326,0,0,0-200.671,0A35.817,35.817,0,0,0,98.2,155.39c-16.834,53.749-16.832,108.058,0,161.8a35.818,35.818,0,0,0,26.107,24.254,443.326,443.326,0,0,0,200.671,0,35.818,35.818,0,0,0,26.107-24.254C367.921,263.448,367.923,209.139,351.09,155.39Z" transform="translate(-85.58 -119.633)" fill="url(#e)"/></g></g></svg>