<svg xmlns="http://www.w3.org/2000/svg" width="509.971" height="531.107" viewBox="0 0 509.971 531.107"><g transform="translate(-5.951)"><path d="M454.175,26.972H67.7A61.747,61.747,0,0,0,5.951,88.718V448.433A61.747,61.747,0,0,0,67.7,510.18H454.175a61.747,61.747,0,0,0,61.746-61.746V88.718a61.746,61.746,0,0,0-61.746-61.746Z" transform="translate(0 20.928)" fill="#ebf0f3"/><path d="M515.922,151.964V77.148A61.747,61.747,0,0,0,454.175,15.4H67.7A61.747,61.747,0,0,0,5.951,77.148v74.815Z" transform="translate(0 11.95)" fill="#ce412d"/><path d="M515.922,156.945V88.718a61.747,61.747,0,0,0-61.746-61.746H67.7A61.747,61.747,0,0,0,5.951,88.718v68.227Z" transform="translate(0 20.928)" fill="#e56353"/><path d="M72.318,45.645A21.55,21.55,0,1,0,93.866,67.2,21.551,21.551,0,0,0,72.318,45.645Z" transform="translate(34.773 35.416)" fill="#d15241"/><path d="M67.939,0A11.53,11.53,0,0,0,56.41,11.529v89.827a11.529,11.529,0,1,0,23.058,0V11.529A11.529,11.529,0,0,0,67.939,0Z" transform="translate(39.151)" fill="#4d5c7d"/><path d="M130.071,45.645A21.55,21.55,0,1,0,151.619,67.2a21.551,21.551,0,0,0-21.549-21.551Z" transform="translate(79.584 35.416)" fill="#d15241"/><path d="M125.692,0a11.53,11.53,0,0,0-11.529,11.529v89.827a11.529,11.529,0,1,0,23.058,0V11.529A11.53,11.53,0,0,0,125.692,0Z" transform="translate(83.962)" fill="#4d5c7d"/><path d="M187.824,45.645A21.55,21.55,0,1,0,209.372,67.2a21.551,21.551,0,0,0-21.549-21.551Z" transform="translate(124.395 35.416)" fill="#d15241"/><path d="M183.445,0a11.53,11.53,0,0,0-11.529,11.529v89.827a11.529,11.529,0,0,0,23.058,0V11.529A11.53,11.53,0,0,0,183.445,0Z" transform="translate(128.773)" fill="#4d5c7d"/><path d="M245.577,45.645A21.55,21.55,0,1,0,267.125,67.2a21.551,21.551,0,0,0-21.549-21.551Z" transform="translate(169.205 35.416)" fill="#d15241"/><path d="M241.2,0a11.53,11.53,0,0,0-11.529,11.529v89.827a11.529,11.529,0,0,0,23.058,0V11.529A11.529,11.529,0,0,0,241.2,0Z" transform="translate(173.583)" fill="#4d5c7d"/><g transform="translate(107.091 263.184)"><path d="M111.907,148.2h46.609v46.609H111.907Z" transform="translate(-24.879 -148.197)" fill="#e56353"/><path d="M160.911,148.2H207.52v46.609H160.911Z" transform="translate(13.144 -148.197)" fill="#e56353"/><path d="M209.916,148.2h46.609v46.609H209.916Z" transform="translate(51.167 -148.197)" fill="#e56353"/><path d="M62.9,189.34h46.609v46.609H62.9Z" transform="translate(-62.902 -116.274)" fill="#e56353"/><path d="M111.907,189.34h46.609v46.609H111.907Z" transform="translate(-24.879 -116.274)" fill="#e56353"/><path d="M160.911,189.34H207.52v46.609H160.911Z" transform="translate(13.144 -116.274)" fill="#e56353"/><path d="M209.916,189.34h46.609v46.609H209.916Z" transform="translate(51.167 -116.274)" fill="#e56353"/><path d="M62.9,230.483h46.609v46.609H62.9Z" transform="translate(-62.902 -84.351)" fill="#e56353"/><path d="M111.907,230.483h46.609v46.609H111.907Z" transform="translate(-24.879 -84.351)" fill="#e56353"/><path d="M160.911,230.483H207.52v46.609H160.911Z" transform="translate(13.144 -84.351)" fill="#e56353"/></g></g></svg>