<svg xmlns="http://www.w3.org/2000/svg" width="370.006" height="497" viewBox="0 0 370.006 497"><g transform="translate(-63.497)"><path d="M400.59,61.826H386.753l-138.254,20-138.254-20H94.41A30.913,30.913,0,1,1,94.41,0H400.59a30.913,30.913,0,0,1,0,61.826Z" fill="#b98080"/><path d="M402.59,0h-30a30.913,30.913,0,0,1,0,61.826h30A30.913,30.913,0,0,0,402.59,0Z" fill="#ae6c6c"/><path d="M384.754,100.633V61.826H110.246v38.807a138.3,138.3,0,0,0,92.181,130.382,18.542,18.542,0,0,1,0,34.968,138.3,138.3,0,0,0-92.181,130.382v38.807H384.753V396.365a138.3,138.3,0,0,0-92.181-130.382A18.544,18.544,0,0,1,280.2,248.5h2c0-7.861,2.956-14.865,10.368-17.484a138.3,138.3,0,0,0,92.182-130.382Z" fill="#efedef"/><path d="M110.246,61.826v19.6h227.3a19.208,19.208,0,0,1,19.208,19.208,138.3,138.3,0,0,1-91.681,130.2A19.048,19.048,0,0,0,252.4,245.8a18.55,18.55,0,0,0,12.173,20.186,138.3,138.3,0,0,1,92.181,130.382v38.807h30V396.365a138.3,138.3,0,0,0-91.681-130.2A19.048,19.048,0,0,1,282.4,251.2a18.55,18.55,0,0,1,12.173-20.186,138.3,138.3,0,0,0,92.181-130.382V61.826Z" fill="#d7d0d6"/><path d="M400.59,497H94.41a30.913,30.913,0,1,1,0-61.826h15.837l138.254-20,138.254,20h13.837a30.913,30.913,0,1,1,0,61.826Z" fill="#b98080"/><path d="M402.59,435.174h-30a30.913,30.913,0,0,1,0,61.826h30a30.913,30.913,0,0,0,0-61.826Z" fill="#ae6c6c"/><path d="M315.075,326.717H300.514c-14.643,0-29.136-10.593-31.531-25.038l-5.941-35.833a29.934,29.934,0,0,1,29.531-34.83,138.673,138.673,0,0,0,80.289-74.263H122.138a138.667,138.667,0,0,0,80.289,74.263,29.934,29.934,0,0,1,29.531,34.83l-5.941,35.833a29.935,29.935,0,0,1-29.531,25.038H179.925c-38.174,0-69.47,30.715-69.676,68.888q0,.381,0,.762v38.807H384.754V396.367q0-.381,0-.762c-.207-38.173-31.5-68.888-69.677-68.888Z" fill="#fed402"/><path d="M386.752,395.605c-.207-38.173-31.5-68.888-69.676-68.888H300.514a29.934,29.934,0,0,1-29.531-25.038l-5.941-35.833a29.934,29.934,0,0,1,29.531-34.83,138.673,138.673,0,0,0,80.289-74.263h-30a138.667,138.667,0,0,1-80.289,74.263,29.934,29.934,0,0,0-29.531,34.83l5.941,35.833a29.935,29.935,0,0,0,29.531,25.038h16.562c38.174,0,69.47,30.715,69.676,68.888q0,.381,0,.762v38.807h30V396.367q0-.381,0-.762Z" fill="#fac600"/></g></svg>