<svg xmlns="http://www.w3.org/2000/svg" width="512" height="512" viewBox="0 0 512 512"><circle cx="256" cy="256" r="256" fill="#eab14d"/><path d="M256,0q-6.855,0-13.622.361C377.43,7.443,484.757,119.185,484.757,256S377.43,504.557,242.378,511.639q6.767.354,13.622.361c141.385,0,256-114.615,256-256S397.385,0,256,0Z" fill="#e49542"/><circle cx="199.487" cy="199.487" r="199.487" transform="translate(56.513 56.513)" fill="#f4fbff"/><path d="M256,56.513c-5.525,0-10.994.235-16.4.675C342.094,65.532,422.678,151.351,422.678,256S342.094,446.467,239.595,454.812c5.411.441,10.88.676,16.4.676,110.174,0,199.487-89.314,199.487-199.487S366.174,56.513,256,56.513Z" fill="#daf1f4"/><path d="M256,117.911a7.726,7.726,0,0,1-7.726-7.726V98.845a7.726,7.726,0,0,1,15.453,0v11.34A7.727,7.727,0,0,1,256,117.911Z" fill="#2b4d66"/><path d="M358.687,160.794a7.726,7.726,0,0,1-5.463-13.19l8.019-8.018a7.726,7.726,0,1,1,10.926,10.927l-8.019,8.019a7.708,7.708,0,0,1-5.463,2.262Z" fill="#2b4d66"/><path d="M412.315,263.727h-11.34a7.726,7.726,0,1,1,0-15.452h11.34a7.726,7.726,0,1,1,0,15.452Z" fill="#2b4d66"/><path d="M366.11,374.433a7.708,7.708,0,0,1-5.464-2.263l-8.018-8.018a7.727,7.727,0,0,1,10.928-10.928l8.018,8.018a7.727,7.727,0,0,1-5.464,13.191Z" fill="#2b4d66"/><path d="M255.158,420.043a7.726,7.726,0,0,1-7.726-7.726v-11.34a7.726,7.726,0,1,1,15.452,0v11.34A7.726,7.726,0,0,1,255.158,420.043Z" fill="#2b4d66"/><path d="M144.452,373.837a7.728,7.728,0,0,1-5.463-13.191l8.019-8.018a7.727,7.727,0,0,1,10.926,10.928l-8.019,8.018A7.7,7.7,0,0,1,144.452,373.837Z" fill="#2b4d66"/><path d="M110.183,262.886H98.843a7.726,7.726,0,1,1,0-15.452h11.34a7.726,7.726,0,0,1,0,15.452Z" fill="#2b4d66"/><path d="M153.067,160.2a7.7,7.7,0,0,1-5.463-2.263l-8.019-8.018a7.727,7.727,0,1,1,10.926-10.928l8.019,8.019a7.726,7.726,0,0,1-5.463,13.19Z" fill="#2b4d66"/><path d="M256,263.727H190.38a7.727,7.727,0,0,1,0-15.453h57.893v-98.3a7.726,7.726,0,0,1,15.452,0V256A7.725,7.725,0,0,1,256,263.727Z" fill="#2b4d66"/><path d="M335.266,304.491a7.7,7.7,0,0,1-3.527-.857L252.467,262.87a7.726,7.726,0,1,1,7.067-13.742l79.272,40.763a7.728,7.728,0,0,1-3.54,14.6Z" fill="#da4a54"/><circle cx="20.622" cy="20.622" r="20.622" transform="translate(235.378 235.378)" fill="#365e7d"/></svg>