<svg xmlns="http://www.w3.org/2000/svg" width="512" height="512" viewBox="0 0 512 512"><path d="M171,140h5v25a15,15,0,0,0,24.37,11.713L246.262,140h19.477l45.891,36.713A15,15,0,0,0,336,165V140h5a35,35,0,0,0,35-35V35A35,35,0,0,0,341,0H171a35,35,0,0,0-35,35v70a35,35,0,0,0,35,35Zm40-85h90a15,15,0,0,1,0,30H211a15,15,0,0,1,0-30Z" fill="#c14a34"/><path d="M130,452H382v60H130Z" fill="#c14a34"/><path d="M115,422h95a30,30,0,0,0,0-60H150V347a74.625,74.625,0,0,0-12.306-41.148,89.9,89.9,0,0,1-99.842-24A74.955,74.955,0,0,0,0,347V497a15,15,0,0,0,15,15h85V449.911A55.011,55.011,0,0,1,60,397V377a15,15,0,0,1,30,0v20A25,25,0,0,0,115,422Z" fill="#c14a34"/><circle cx="60" cy="60" r="60" transform="translate(45 162)" fill="#c14a34"/><circle cx="60" cy="60" r="60" transform="translate(347 162)" fill="#c14a34"/><path d="M474.148,281.856a89.9,89.9,0,0,1-99.842,24A74.625,74.625,0,0,0,362,347v15H302a30,30,0,0,0,0,60h95a25,25,0,0,0,25-25V377a15,15,0,0,1,30,0v20a55.011,55.011,0,0,1-40,52.911V512h85a15,15,0,0,0,15-15V347a74.955,74.955,0,0,0-37.852-65.144Z" fill="#c14a34"/></svg>