<svg xmlns="http://www.w3.org/2000/svg" width="512" height="512.002" viewBox="0 0 512 512.002"><g transform="translate(-0.001)"><path d="M256,0C113.716,0,0,115.36,0,256,0,398.024,115.363,512.007,255.942,512,397.082,512,512,397.669,512,256,512,115.524,398.38,0,256,0ZM198.975,281.887l-18.859,81.73c-4.726,20.488-33.2,23.7-42.039,4.139L95.649,273.623l28.331-83.156a15,15,0,0,0-7.587-18.3L59.519,144.239a225.222,225.222,0,0,1,94.732-90.106V91.39a15,15,0,0,0,11.89,14.674l76.806,16.281a27.886,27.886,0,0,1,21.313,20.326l7.259,27.712a28.184,28.184,0,0,1-5.191,24.572l-64.471,80.96A14.994,14.994,0,0,0,198.975,281.887ZM239.383,481.4l8.607-18.167c1.6-3.384,3.379-4.98,6.528-6.886,3.323-1.99,8.365-4.3,16.655-8.465a15.614,15.614,0,0,1,19.711,4.341l0,0,17.942,23.558A227.817,227.817,0,0,1,239.383,481.4Zm162.271-52.6L382,416.048l-8.815-81.7a33.35,33.35,0,0,1,5.871-22.746l44.27-63.01a15,15,0,0,0,2.727-8.623V182.1l28.732-33.717A226.12,226.12,0,0,1,401.654,428.8Z" fill="#c14a34"/></g></svg>