<svg xmlns="http://www.w3.org/2000/svg" width="450.889" height="512.001" viewBox="0 0 450.889 512.001"><g transform="translate(-30.556)"><path d="M406.3,90.17H376.237a15.03,15.03,0,0,0,0,30.06H406.3a15.03,15.03,0,0,0,0-30.06Z" fill="#c14a34"/><path d="M254.416,38.359,239.387,8.3A15.032,15.032,0,1,0,212.5,21.745L227.528,51.8a15.031,15.031,0,1,0,26.888-13.445Z" fill="#c14a34"/><path d="M352.9,1.578A15.064,15.064,0,0,0,332.733,8.3L317.7,38.359A15.032,15.032,0,1,0,344.592,51.8l15.03-30.059A15.03,15.03,0,0,0,352.9,1.578Z" fill="#c14a34"/><path d="M195.882,90.17H165.823a15.03,15.03,0,0,0,0,30.06h30.059a15.03,15.03,0,1,0,0-30.06Z" fill="#c14a34"/><path d="M105.705,241.468H45.586a15.03,15.03,0,0,0-15.03,15.03V496.97A15.03,15.03,0,0,0,45.586,512H105.7a15.03,15.03,0,0,0,15.03-15.03V256.5A15.029,15.029,0,0,0,105.705,241.468Z" fill="#c14a34"/><path d="M481.145,281.308c-2.651-23.315-24.43-39.84-47.895-39.84H316.075c9.958-17.831,15.3-68.264,15.066-88.866-.393-34.1-28.634-61.43-62.737-61.43H256a15.021,15.021,0,0,0-15.03,15.03c0,34.755-13.533,97.487-39.056,123.011-17.179,17.179-31.865,23.4-51.122,33.028V487.759C180.277,497.586,217.711,512,274.768,512h98.316c32.395,0,57.625-30,45.072-61.7a45.1,45.1,0,0,0,30.059-60.119c32.229-8.781,44.092-48.576,21.723-73.563A45,45,0,0,0,481.145,281.308Z" fill="#c14a34"/></g></svg>