<svg xmlns="http://www.w3.org/2000/svg" width="511.249" height="507.457" viewBox="0 0 511.249 507.457"><g transform="translate(0 -0.178)"><path d="M277.565,36.221,43.456.647A37.754,37.754,0,0,0,13.207,8.954,38.092,38.092,0,0,0,0,37.5V486.333a21.365,21.365,0,0,0,21.3,21.3H90.534V395.8a37.183,37.183,0,0,1,37.279-37.279h53.255A37.183,37.183,0,0,1,218.346,395.8V507.635h90.534V73.074a37.3,37.3,0,0,0-31.314-36.852Zm-160.4,274.37H85.208a15.977,15.977,0,0,1,0-31.953h31.953a15.977,15.977,0,0,1,0,31.953Zm0-63.906H85.208a15.977,15.977,0,1,1,0-31.953h31.953a15.977,15.977,0,0,1,0,31.953Zm0-63.906H85.208a15.977,15.977,0,1,1,0-31.953h31.953a15.977,15.977,0,1,1,0,31.953Zm0-63.906H85.208a15.977,15.977,0,1,1,0-31.953h31.953a15.977,15.977,0,0,1,0,31.953Zm106.51,191.718H191.718a15.977,15.977,0,0,1,0-31.953h31.953a15.977,15.977,0,1,1,0,31.953Zm0-63.906H191.718a15.977,15.977,0,0,1,0-31.953h31.953a15.977,15.977,0,1,1,0,31.953Zm0-63.906H191.718a15.977,15.977,0,1,1,0-31.953h31.953a15.977,15.977,0,1,1,0,31.953Zm0-63.906H191.718a15.977,15.977,0,0,1,0-31.953h31.953a15.977,15.977,0,1,1,0,31.953Z" transform="translate(0 0)" fill="#c14a34"/><path d="M167.17,41.112,15.5,9.351V321.4H159.289a37.319,37.319,0,0,0,37.279-37.279V77.539A37.1,37.1,0,0,0,167.17,41.112ZM116.685,257.5H84.732a15.977,15.977,0,1,1,0-31.953h31.953a15.977,15.977,0,0,1,0,31.953Zm0-63.906H84.732a15.977,15.977,0,1,1,0-31.953h31.953a15.977,15.977,0,0,1,0,31.953Zm0-63.906H84.732a15.977,15.977,0,1,1,0-31.953h31.953a15.977,15.977,0,0,1,0,31.953Z" transform="translate(314.681 186.23)" fill="#c14a34"/></g></svg>